<?xml version="1.0" encoding="UTF-8"?>
<!DOCTYPE svg PUBLIC "-//W3C//DTD SVG 1.1//EN" "http://www.w3.org/Graphics/SVG/1.1/DTD/svg11.dtd">
<svg xmlns="http://www.w3.org/2000/svg" xml:space="preserve" width="200px" height="200px" version="1.1" shape-rendering="geometricPrecision" text-rendering="geometricPrecision" image-rendering="optimizeQuality" fill-rule="evenodd" clip-rule="evenodd"
viewBox="0 0 200 200"
 xmlnsXlink="http://www.w3.org/1999/xlink"
 xmlnsXodm="http://www.corel.com/coreldraw/odm/2003">
 <g id="Layer_x0020_1">
  <circle fill="white" cx="100.55" cy="99.45" r="99.45"/>
  <path fill="#00D684" fill-rule="nonzero" d="M146.32 53.2c5.9,-0.33 8.54,-4.76 9.15,-6.57 -16.67,-3.13 -65.24,-6.58 -82.51,-6.58 -15.65,0 -26.22,1.97 -33.33,8.55 -3.05,2.96 -4.47,6.57 -4.47,10.52 0,5.75 3.05,11.5 9.76,12.66 1.62,-7.24 13.61,-17.59 52.02,-18.58 0,7.89 -1.22,21.53 -3.46,53.42 -0.81,12.99 -1.82,23.67 -1.82,33.86 0,3.78 0,7.4 0.4,11.02 1.22,12.16 16.67,14.96 24.39,14.96 -0.2,-5.92 -0.41,-11.84 -0.41,-17.59 0,-16.77 1.02,-33.54 2.03,-50.14 0.61,-10.68 1.43,-27.61 1.43,-39.45 0,-2.3 0,-4.27 -0.21,-6.08l2.44 0c5.08,0.17 9.76,0.17 14.43,0.17 3.45,0 6.91,0 10.16,-0.17z"/>
 </g>
</svg>
