<?xml version="1.0" encoding="UTF-8"?>
<!DOCTYPE svg PUBLIC "-//W3C//DTD SVG 1.1//EN" "http://www.w3.org/Graphics/SVG/1.1/DTD/svg11.dtd">
<svg xmlns="http://www.w3.org/2000/svg" xml:space="preserve"  version="1.1" shape-rendering="geometricPrecision" text-rendering="geometricPrecision" image-rendering="optimizeQuality" fill-rule="evenodd" clip-rule="evenodd"
viewBox="0 0 200 75"
 xmlnsXlink="http://www.w3.org/1999/xlink">
 <defs>
   <linearGradient id="id0" gradientUnits="userSpaceOnUse" x1="33.77" y1="50.42" x2="174.85" y2="50.42">
    <stop offset="0" stop-opacity="1" stop-color="#40DB80"/>
    <stop offset="0.478431" stop-opacity="1" stop-color="#7F3488"/>
    <stop offset="1" stop-opacity="1" stop-color="#F28E16"/>
   </linearGradient>
   <linearGradient id="id1" gradientUnits="userSpaceOnUse" x1="33.77" y1="50.42" x2="174.85" y2="50.42">
    <stop offset="0" stop-opacity="1" stop-color="#40DB80"/>
    <stop offset="0.478431" stop-opacity="1" stop-color="#7F3488"/>
    <stop offset="1" stop-opacity="1" stop-color="#F28E16"/>
   </linearGradient>
   <linearGradient id="id2" gradientUnits="userSpaceOnUse" x1="33.77" y1="50.42" x2="174.85" y2="50.42">
    <stop offset="0" stop-opacity="1" stop-color="#40DB80"/>
    <stop offset="0.478431" stop-opacity="1" stop-color="#7F3488"/>
    <stop offset="1" stop-opacity="1" stop-color="#F28E16"/>
   </linearGradient>
   <linearGradient id="id3" gradientUnits="userSpaceOnUse" x1="33.77" y1="50.42" x2="174.85" y2="50.42">
    <stop offset="0" stop-opacity="1" stop-color="#40DB80"/>
    <stop offset="0.478431" stop-opacity="1" stop-color="#7F3488"/>
    <stop offset="1" stop-opacity="1" stop-color="#F28E16"/>
   </linearGradient>
   <linearGradient id="id4" gradientUnits="userSpaceOnUse" x1="33.77" y1="50.42" x2="174.85" y2="50.42">
    <stop offset="0" stop-opacity="1" stop-color="#40DB80"/>
    <stop offset="0.478431" stop-opacity="1" stop-color="#7F3488"/>
    <stop offset="1" stop-opacity="1" stop-color="#F28E16"/>
   </linearGradient>
   <linearGradient id="id5" gradientUnits="userSpaceOnUse" x1="33.77" y1="50.42" x2="174.85" y2="50.42">
    <stop offset="0" stop-opacity="1" stop-color="#40DB80"/>
    <stop offset="0.478431" stop-opacity="1" stop-color="#7F3488"/>
    <stop offset="1" stop-opacity="1" stop-color="#F28E16"/>
   </linearGradient>
   <linearGradient id="id6" gradientUnits="userSpaceOnUse" x1="33.77" y1="50.42" x2="174.85" y2="50.42">
    <stop offset="0" stop-opacity="1" stop-color="#40DB80"/>
    <stop offset="0.478431" stop-opacity="1" stop-color="#7F3488"/>
    <stop offset="1" stop-opacity="1" stop-color="#F28E16"/>
   </linearGradient>
   <linearGradient id="id7" gradientUnits="userSpaceOnUse" x1="33.77" y1="50.42" x2="174.85" y2="50.42">
    <stop offset="0" stop-opacity="1" stop-color="#40DB80"/>
    <stop offset="0.478431" stop-opacity="1" stop-color="#7F3488"/>
    <stop offset="1" stop-opacity="1" stop-color="#F28E16"/>
   </linearGradient>
   <linearGradient id="id8" gradientUnits="userSpaceOnUse" x1="33.77" y1="50.42" x2="174.85" y2="50.42">
    <stop offset="0" stop-opacity="1" stop-color="#40DB80"/>
    <stop offset="0.478431" stop-opacity="1" stop-color="#7F3488"/>
    <stop offset="1" stop-opacity="1" stop-color="#F28E16"/>
   </linearGradient>
   <linearGradient id="id9" gradientUnits="userSpaceOnUse" x1="50.68" y1="17.11" x2="180.31" y2="17.11">
    <stop offset="0" stop-opacity="1" stop-color="#40DB80"/>
    <stop offset="0.478431" stop-opacity="1" stop-color="#7F3488"/>
    <stop offset="1" stop-opacity="1" stop-color="#F28E16"/>
   </linearGradient>
 </defs>
 <g id="Layer_x0020_1">
  <path fill="url(#id0)" fill-rule="nonzero" d="M29.76 67.57c-0.77,1.13 -2.08,1.68 -3.08,1.68 -0.95,0 -1.67,-0.5 -1.67,-1.45 0,-0.91 2.76,-2.54 6.06,-4.35 -0.36,1.95 -0.72,3.31 -1.31,4.12zm1.77 -7.15c-2.77,1.31 -3.63,1.76 -4.53,2.22 -3.31,1.63 -6.79,3.62 -6.79,5.47 0,2.22 3.35,3.67 6.83,3.67 1.72,0 3.4,-0.36 4.71,-1.17 2.54,-1.63 3.76,-5.76 4.35,-9.92 2.26,-1.18 4.17,-2.36 4.94,-3.13 0.95,-0.99 1.22,-1.99 1.22,-2.76 0,-0.77 -0.36,-1.49 -0.59,-1.67 -1.04,1.13 -3.03,2.76 -5.16,4.21l0.27 -2.95c0.09,-0.95 0.13,-1.76 0.23,-2.49 0.58,-5.16 1.13,-12.81 1.13,-16.66 0,-1.45 -2.36,-3.85 -4.08,-3.85 -0.68,0 -1.22,0.41 -1.4,1.5 -0.55,2.76 -1.86,7.29 -3.35,11.72 -1.27,3.76 -2.67,7.43 -3.9,9.92 -0.9,1.86 -1.67,3.03 -2.22,3.03 -0.86,0 -1.81,-0.72 -1.81,-2.94 0,-2.54 0.27,-6.47 0.5,-10.23 0.27,-4.31 0.54,-8.38 0.54,-10.01 0,-2.9 -2.89,-5.66 -5.29,-5.66 -2.36,0 -3.45,1.04 -4.8,1.99 -1.14,0.77 -2.22,1.72 -2.22,1.72 0.18,0.68 0.59,1.36 1.63,1.36 0.54,0 1.13,-0.27 1.81,-0.68 1.18,-0.72 2.22,-1.67 2.76,-1.67 0.32,0 0.5,0.04 0.68,0.18 0.32,0.27 0.5,1.13 0.5,2.31 0,1.72 -0.27,4.25 -0.5,7.06 -0.32,3.76 -0.72,9.51 -0.72,13.04 0,1.63 0.04,2.95 0.58,4.39 0.86,2.22 3.13,3.72 5.12,3.72 0.68,0 1.45,0 2.4,-1 1.68,-1.76 3.08,-4.35 4.48,-7.61 2.4,-5.52 4.08,-11.5 4.08,-11.5 -0.09,5.98 -0.63,12.91 -1.18,16.76l-0.22 1.63z"/>
  <path id="1" fill="url(#id1)" fill-rule="nonzero" d="M59.51 59.1c-0.68,-0.31 -0.91,-1.94 -0.91,-4.07 0,-2.63 0.32,-6.11 0.59,-8.7 0.14,-1.35 0.23,-2.49 0.23,-2.94 -0.05,-1.99 -2.58,-3.62 -3.99,-3.62 -0.49,0 -0.81,0.22 -0.86,0.68 -0.04,0.68 -0.09,1.13 -0.18,1.63 -1.36,-1.95 -3.53,-3.04 -5.75,-3.04 -0.81,0 -1.63,0.14 -2.4,0.46 -3.76,1.49 -5.61,7.06 -5.61,11.68l0 0.5c0.09,2.9 0.9,5.66 2.13,7.56 1.08,1.72 2.58,2.76 4.12,2.76 0.36,0 0.77,-0.04 1.17,-0.18 2.86,-1 5.03,-7.38 5.66,-9.55 0,0.18 -0.04,0.36 -0.04,0.54 -0.05,0.72 -0.09,1.31 -0.09,1.9 0,1.13 0.13,2.27 0.54,4.08 0.18,0.77 0.77,1.49 1.5,2.03 0.95,0.73 2.49,1.32 3.57,1.32 2.81,0 5.07,-2.45 5.84,-4.71 0.1,-0.36 0.14,-0.68 0.14,-1 0,-1.18 -0.63,-1.76 -1.13,-1.9 -0.41,1.54 -2.27,4.75 -3.9,4.75 -0.22,0 -0.4,-0.09 -0.63,-0.18zm-11.77 -1.08c-0.68,0 -1.32,-2.18 -1.32,-4.49 0,-3.71 1.09,-8.92 2.95,-10.86 0.54,-0.55 1.08,-0.77 1.58,-0.77 1.5,0 2.67,2.03 2.81,3.48 -0.82,3.67 -2.26,7.84 -3.71,10.33 -0.82,1.4 -1.63,2.31 -2.31,2.31z"/>
  <path id="2" fill="url(#id2)" fill-rule="nonzero" d="M67.93 56.52c0,-1.17 0.46,-2.94 1.09,-4.57 0.5,-1.31 1.09,-2.58 1.67,-3.53 1.23,1.85 3.45,3.08 5.98,3.08 2.58,0 4.71,-1.41 4.71,-3.72 0,-1.08 -0.5,-1.76 -1.27,-1.85 -0.36,1.45 -1.72,2.71 -3.17,2.71 -0.13,0 -0.31,0 -0.45,-0.04 -2.17,-0.45 -2.99,-2.81 -2.99,-2.81 0,0 1.86,-2.13 1.86,-3.35 0,-1.81 -1.95,-3.35 -3.4,-3.35 -0.36,0 -0.68,0.09 -0.95,0.32 -0.68,0.54 -1.18,1.54 -1.49,2.85 -0.14,0.59 -0.18,1.18 -0.18,1.63 0,0.32 0.04,0.68 0.09,0.99 -0.46,0.87 -0.95,2.13 -1.36,3.49l0 -1.76c0,-1.91 -0.09,-3.76 -1,-5.12 -0.72,-1.18 -1.9,-1.99 -3.21,-1.99 -0.32,0 -0.64,0.04 -0.95,0.13 0.09,0.5 0.18,1.22 0.18,2.18 0,1.04 -0.05,2.35 -0.09,3.8 -0.05,1.77 -0.09,4.26 -0.09,6.11 0,3.31 0.18,6.43 0.72,7.79 0.45,1.22 1.99,2.45 3.44,2.45 0.36,0 0.73,-0.05 1.04,-0.23 -0.13,-1.77 -0.18,-3.35 -0.18,-5.21z"/>
  <path id="3" fill="url(#id3)" fill-rule="nonzero" d="M88.9 54.98c0.13,0.91 0.54,3.4 1.04,4.44 1.09,2.22 3.17,3.08 4.35,3.08 1.4,0 2.76,-0.59 3.85,-1.49 1.26,-1.05 2.17,-2.5 2.53,-3.94 0.09,-0.28 0.09,-0.59 0.09,-0.82 0,-1.13 -0.68,-1.67 -1.22,-1.77 -0.18,0.82 -0.68,1.95 -1.31,2.81 -0.59,0.77 -1.27,1.41 -2.04,1.41 -0.27,0 -0.5,-0.09 -0.77,-0.23 -0.73,-0.41 -1.22,-2.45 -1.4,-5.52 -0.05,-1 -0.1,-2 -0.1,-2.99 0,-2.09 0.14,-4.12 0.28,-6.16 0.72,-1.99 2.89,-8.2 2.89,-12.05 0,-1.9 -0.86,-3.35 -1.99,-4.25 -1.04,-0.82 -2.26,-1.27 -3.39,-1.27 -1.14,0 -2.09,0.5 -2.4,1.45 -0.77,2.13 -0.96,6.7 -0.96,11.68l0 0.41c-0.86,-0.36 -1.81,-0.55 -2.8,-0.55 -2.31,0 -4.12,0.86 -5.39,2.68 -1.95,2.76 -2.81,6.29 -2.81,9.64 0,1.36 0.14,2.72 0.41,3.99 0.45,2.03 1.22,3.57 2.13,4.66 1.17,1.36 2.58,1.99 3.71,1.99 0.32,0 0.63,-0.04 0.91,-0.13 1.67,-0.64 3.39,-4.71 4.39,-7.07zm-4.62 2.9c-1.04,0 -1.54,-2.26 -1.54,-4.84 0,-3.58 0.91,-8.38 2.9,-10.15 0.77,-0.72 1.54,-0.95 2.17,-0.95 0.18,0 0.36,0 0.54,0.05 0.05,3.3 0.14,6.34 0.23,8.06 -0.68,1.94 -1.4,3.71 -2.08,5.11 -0.82,1.68 -1.54,2.72 -2.22,2.72zm8.15 -17.98c-0.14,-1.35 -0.36,-2.67 -0.36,-4.61 0,-2 0.27,-3.99 1.08,-4.08 0.91,0 1,1.04 1,1.68 0,1.04 -0.36,2.67 -0.77,4.07 -0.45,1.59 -0.95,2.94 -0.95,2.94z"/>
  <path id="4" fill="url(#id4)" fill-rule="nonzero" d="M116.75 59.28c-1.32,0 -1.36,-1.99 -1.36,-3.44 0,-1.9 0.27,-4.07 0.32,-4.84 0.13,-1.63 0.31,-3.49 0.31,-5.12 0,-1.09 -0.09,-2.08 -0.31,-2.85 -0.59,-1.9 -2.99,-3.58 -5.21,-3.58 -0.82,0 -1.59,0.23 -2.27,0.73 -0.9,0.63 -1.9,2.76 -2.85,5.07 -1.13,2.76 -1.9,5.7 -2.13,6.56 0,0.09 -0.04,0.14 -0.04,0.18 0,-1.58 0.45,-4.48 0.45,-6.97 0,-1.18 -0.04,-2.26 -0.32,-2.85 -0.72,-1.68 -2.22,-2.58 -3.57,-2.58 -0.28,0 -0.55,0.04 -0.77,0.09 0.09,0.63 0.13,1.4 0.13,2.35 0,1.95 -0.22,4.58 -0.41,7.07 -0.18,2.03 -0.36,4.34 -0.36,5.79 0,0.77 0.05,1.54 0.18,2.31 0.5,3.08 2.72,5.07 3.76,5.07 0.32,0 0.55,-0.18 0.55,-0.63l0 -0.32c0,-1.36 1.31,-6.16 2.85,-10.46 0.81,-2.4 1.76,-4.66 2.58,-6.16 0.63,-1.13 1.22,-1.81 1.63,-1.81 0.77,0 1,0.95 1,2.27 0,1.17 -0.19,2.62 -0.28,3.85 -0.13,1.72 -0.31,3.48 -0.31,5.16 0,1.31 0.13,2.62 0.5,3.85 1.17,3.62 4.43,4.25 5.7,4.25 0.73,0 1.63,-0.4 2.49,-1.08 1.31,-1 2.36,-2.49 2.81,-3.76 0.13,-0.36 0.23,-0.77 0.23,-1.04 0,-1.14 -0.73,-1.77 -1.27,-1.86 -0.23,1.4 -1.32,3.08 -2.45,4.03 -0.54,0.45 -1.08,0.72 -1.58,0.72z"/>
  <path id="5" fill="url(#id5)" fill-rule="nonzero" d="M120.46 58.47c0.68,1.99 2.58,3.71 5.39,3.71 1.95,0 3.71,-1.31 4.98,-3.57 0.45,-0.82 0.77,-1.86 0.77,-2.59 0,-0.77 -0.68,-1.54 -1.22,-1.54 -0.14,0.64 -1.04,2.54 -2.22,3.63 -0.45,0.45 -1.09,0.86 -1.54,0.86 -0.45,0 -0.82,-0.14 -1.04,-0.46 -0.5,-0.63 -0.55,-1.85 -0.55,-3.21 0,-2.45 0.28,-4.75 0.46,-7.06 0.09,-1.41 0.22,-2.72 0.22,-3.9 0,-1.18 -0.13,-2.22 -0.54,-3.12 -1,-2.13 -2.81,-2.77 -4.08,-2.77l-0.36 0c0,2.63 -0.31,5.26 -0.54,7.79 -0.18,2.45 -0.41,4.85 -0.41,7.02 0,1.72 0.05,3.31 0.68,5.21zm2.08 -28.8c-1.04,0 -1.81,0.32 -2.22,0.86 -0.22,0.32 -0.36,0.68 -0.36,1.09 0,0.63 0.32,1.36 0.91,2.03 0.99,1.09 2.53,1.82 3.89,1.82 1.22,0 2.54,-0.59 2.54,-1.86 0,-1.27 -0.82,-2.31 -1.9,-2.99 -0.91,-0.59 -1.95,-0.95 -2.86,-0.95z"/>
  <path id="6" fill="url(#id6)" fill-rule="nonzero" d="M141.34 67.07c-0.55,0.91 -1.59,1.27 -2.45,1.27 -0.86,0 -1.58,-0.32 -1.58,-0.81 0,-0.37 0.54,-0.77 0.81,-0.95 0.73,-0.55 3.49,-1.86 4.17,-2.13 -0.23,0.95 -0.5,1.81 -0.95,2.62zm-4.44 -9.01c-0.91,0 -1.59,-1.49 -1.59,-4.62 0,-0.9 0.05,-1.94 0.18,-3.12 0.46,-3.71 2.09,-8.51 4.08,-8.51 1.36,0 2.76,1.58 3.03,3.57 -0.72,2.63 -1.49,5.39 -2.53,7.7 -1.22,2.63 -2.31,4.98 -3.17,4.98zm5.61 3.4c0,0 -2.22,1.18 -3.62,1.85 -2.08,1 -4.39,2.13 -5.34,3.63 -0.27,0.5 -0.46,0.99 -0.46,1.49 0,2.49 3.67,2.99 5.3,2.99 2.4,0 5.07,-0.81 6.52,-2.54 1.5,-1.76 2.22,-4.43 2.54,-6.97 2.31,-1.22 4.39,-2.63 5.52,-4.16 0.46,-0.64 0.68,-1.27 0.68,-1.73 0,-0.95 -0.63,-1.58 -1.13,-1.85 -0.5,0.68 -1.22,1.45 -2.13,2.17 -0.77,0.64 -1.67,1.31 -2.62,1.99 0,-0.54 0.22,-6.47 0.36,-8.96 0.18,-3.22 0,-4.62 0.27,-6.48 0,-0.31 -0.05,-0.54 -0.18,-0.81 -0.68,-1.18 -2.67,-1.95 -3.99,-1.95 -0.49,0 -0.9,0.09 -0.95,0.32 -0.04,0.45 -0.13,0.99 -0.27,1.49 -1.13,-2.08 -3.35,-3.03 -4.89,-3.03 -2.76,0 -5.03,1.63 -6.52,3.98 -1.4,2.31 -2.17,5.26 -2.17,8.24 0,1.68 0.27,3.35 0.72,4.89 0.68,2.18 1.68,3.72 2.81,4.71 0.95,0.82 1.95,1.23 2.94,1.23 1.31,0 2.27,-0.77 2.99,-1.68 1.68,-2.08 3.03,-5.89 4.17,-9.33 0,0.86 -0.46,3.72 -0.46,5.89 0,2.35 -0.09,3.76 -0.09,4.62z"/>
  <path id="7" fill="url(#id7)" fill-rule="nonzero" d="M169.41 59.51c-1.18,0 -1.36,-1.63 -1.36,-2.99 0,-1.49 0.18,-3.3 0.32,-4.84 0.14,-1.77 0.32,-3.53 0.32,-5.12 0,-1.22 -0.14,-2.31 -0.41,-3.26 -0.64,-1.95 -2.99,-3.62 -5.21,-3.62 -0.81,0 -1.63,0.22 -2.26,0.72 -2.04,1.45 -4.3,9.1 -4.53,9.96 0.23,-2.89 0.32,-4.98 0.45,-6.65 1.95,-3.58 3.99,-7.34 3.99,-10.73 0,-0.5 -0.05,-1.05 -0.14,-1.54 -0.68,-3.26 -3.03,-5.12 -5.16,-5.12 -1.31,0 -2.49,0.68 -3.04,2.04 -1.04,2.58 -1.31,8.96 -1.31,15.66 0,6.3 0.23,12.55 0.41,14.22 0.27,2.18 2.35,3.94 3.44,3.94 0.36,0 0.59,-0.22 0.63,-0.68 0.1,-1.76 1.05,-5.48 2.5,-9.73 1.53,-4.49 3.39,-8.61 4.43,-8.65 0.73,0 0.91,1.04 0.91,2.44 0,1.18 -0.14,2.59 -0.18,3.99 -0.09,1.63 -0.23,3.58 -0.23,5.34 0,1.54 0.14,2.95 0.5,3.9 0.77,1.94 3.08,3.76 5.43,3.76 0.5,0 1.04,-0.1 1.54,-0.28 2.18,-0.81 3.81,-3.35 4.3,-5.43 0.05,-0.23 0.09,-0.41 0.09,-0.63 0,-0.91 -0.45,-1.54 -1.13,-1.73 -0.72,2.4 -2.76,5.03 -4.3,5.03zm-13.81 -18.38c0,0.04 -0.23,-2.81 -0.23,-5.17 0,-2.31 0.23,-3.39 0.41,-4.03 0.18,-0.58 0.63,-0.95 1.09,-0.95 0.54,0 1.22,0.55 1.22,1.72 0,3.17 -1.13,5.75 -2.49,8.43z"/>
  <path id="8" fill="url(#id8)" fill-rule="nonzero" d="M178.83 62.18c2.76,0 5.3,-1.45 6.43,-4.48 0.23,-0.59 0.27,-1.04 0.27,-1.4 0,-1.27 -0.77,-1.86 -1.27,-1.91 -0.45,2.63 -2.71,5.08 -4.52,5.08 -0.41,0 -0.77,-0.09 -1.09,-0.37 -0.82,-0.63 -1.18,-2.8 -1.18,-5.75 0,-2.58 0.23,-5.7 0.63,-9.33 0.19,-0.9 0.32,-1.85 0.41,-2.76 1.04,-0.04 1.99,-0.13 2.67,-0.27 1.54,-0.27 2.09,-0.81 2.09,-1.54 0,-0.23 -0.05,-0.5 -0.14,-0.72 -0.5,0.09 -1.22,0.13 -2.08,0.13 -0.73,0 -1.5,-0.04 -2.36,-0.04 0.05,-0.82 0.05,-1.54 0.05,-2.22 0,-1.22 -0.05,-2.04 -0.14,-2.4 -0.72,-3.04 -2.4,-4.3 -3.71,-4.3 -0.45,0 -0.86,0.13 -1.13,0.4 -0.45,1.41 -0.45,2.72 -0.45,4.89 0,1.5 0,2.5 -0.05,3.72 -1.22,0.04 -2.26,0.13 -2.9,0.31 -0.27,0.1 -0.36,0.41 -0.36,0.77 0,0.55 0.18,1.14 0.18,1.14 0.23,0 1.45,0.09 3.03,0.13 -0.04,0.59 -0.09,1.36 -0.09,1.86 -0.18,3.62 -0.31,7.15 -0.31,9.87 0,2.31 0.09,3.94 0.4,4.85 0.82,2.35 2.36,4.34 5.62,4.34z"/>
  <path fill="url(#id9)" d="M185.62 19.08c2.23,0 4.03,1.8 4.03,4.03 0,2.23 -1.8,4.04 -4.03,4.04 -2.23,0 -4.03,-1.81 -4.03,-4.04 0,-2.23 1.8,-4.03 4.03,-4.03zm-1.75 8.21c-35.73,-16.58 -85.08,-21.09 -154.93,-2.77 74.4,-28.4 118.72,-21.28 158.01,-5.84 2.68,1.05 3.77,3.61 2.85,6.03l0 0c-1.04,2.59 -3.85,3.55 -5.93,2.58z"/>
  <path fill="white" stroke="#F28E16" stroke-width="0.9" stroke-miterlimit="22.9256" d="M182.12 16.5c0.09,-2.45 -0.42,-6.66 0.16,-6.77 0.58,-0.13 2.25,3.84 3.44,5.93 1.2,2.09 1.93,2.3 3.39,1.8 1.47,-0.5 3.67,-1.7 4.07,-1.26 0.39,0.44 -1.03,2.53 -1.65,3.94 -0.61,1.42 -0.43,2.15 0.2,3.02 0.63,0.86 1.72,1.86 1.53,2.42 -0.18,0.57 -1.64,0.69 -2.64,1.02 -1,0.32 -1.55,0.85 -1.8,2.21 -0.25,1.35 -0.2,3.55 -0.78,3.67 -0.58,0.12 -1.79,-1.84 -2.75,-2.92 -0.97,-1.08 -1.7,-1.29 -2.82,-1.1 -1.12,0.19 -2.62,0.79 -3.02,0.35 -0.39,-0.44 0.33,-1.93 0.6,-3.03 0.27,-1.11 0.09,-1.85 -1.35,-2.95 -1.43,-1.1 -4.12,-2.57 -4,-3.05 0.12,-0.48 3.05,0.03 4.85,-0.05 1.81,-0.09 2.49,-0.78 2.57,-3.23z"/>
  <path fill="#F28E16" d="M185.62 27.15c2.23,0 4.03,-1.81 4.03,-4.04 0,-2.23 -1.8,-4.03 -4.03,-4.03 -2.23,0 -4.03,1.8 -4.03,4.03 0,2.23 1.8,4.04 4.03,4.04z"/>
 </g>
</svg>
