<?xml version="1.0" encoding="UTF-8"?>
<!DOCTYPE svg PUBLIC "-//W3C//DTD SVG 1.1//EN" "http://www.w3.org/Graphics/SVG/1.1/DTD/svg11.dtd">
<svg xmlns="http://www.w3.org/2000/svg" xml:space="preserve" version="1.1" shape-rendering="geometricPrecision" text-rendering="geometricPrecision" image-rendering="optimizeQuality" fill-rule="evenodd" clip-rule="evenodd"
viewBox="0 0 200 200"
 xmlnsXlink="http://www.w3.org/1999/xlink">
 <g id="Layer_x0020_1">
  <path fill="current" stroke="current" fill-rule="nonzero" d="M10.64 198.43l50.52 -71.68c1.81,3.27 3.98,6.21 6.51,8.83 5.42,5.63 11.85,9.54 19.31,11.75l-35.7 51.1 -40.64 0zm62.85 -89.17l8.79 -12.47 -9.15 -13.04c1.27,-7.47 3.86,-13.43 7.78,-17.86 3.66,-4.12 7.9,-6.94 12.73,-8.47 3.07,4.76 5.63,8.89 7.67,12.4 3.22,-4.52 6.23,-8.8 9.06,-12.82 5.41,1.4 10.14,4.38 14.18,8.95 3.92,4.41 6.53,10.23 7.81,17.46l-9.44 13.38 8.98 12.83c-1.4,6.43 -3.82,11.63 -7.28,15.58 -4,4.56 -8.69,7.54 -14.06,8.95l-6.85 -10.77 -7.7 11.01c-5.83,-1.3 -10.86,-4.35 -15.1,-9.15 -3.58,-4.05 -6.05,-9.38 -7.42,-15.98zm-13.08 -43.64l-44.48 -63.41 40.89 0 28.23 42.17c-5.42,1.91 -10.35,4.78 -14.79,8.6 -4.05,3.5 -7.33,7.71 -9.85,12.64zm59.1 -21.61l29.5 -41.8 40.64 0 -44.65 63.28c-1.96,-3.7 -4.39,-7.04 -7.27,-10.02 -5.22,-5.36 -11.29,-9.18 -18.22,-11.46zm24.73 83.26l49.76 71.16 -40.45 0 -34.51 -51.44c3.02,-0.98 5.95,-2.26 8.77,-3.82 7.02,-3.88 12.49,-9.17 16.43,-15.9zm-65.77 -98.73l0 -23.07 -8.62 0 0 -3.07 20.7 0 0 3.07 -8.61 0 0 23.07 -3.47 0zm15.25 0l0 -26.14 3.22 0 0 9.41c1.49,-1.75 3.37,-2.62 5.64,-2.62 1.4,0 2.61,0.27 3.64,0.83 1.03,0.55 1.77,1.31 2.21,2.28 0.45,0.98 0.67,2.4 0.67,4.25l0 11.99 -3.22 0 0 -11.98c0,-1.6 -0.34,-2.77 -1.03,-3.5 -0.7,-0.73 -1.67,-1.1 -2.94,-1.1 -0.94,0 -1.83,0.25 -2.66,0.74 -0.83,0.49 -1.42,1.16 -1.78,2.01 -0.36,0.84 -0.53,2 -0.53,3.49l0 10.34 -3.22 0zm33.24 -6.13l3.32 0.44c-0.52,1.92 -1.49,3.43 -2.9,4.49 -1.41,1.07 -3.21,1.6 -5.41,1.6 -2.76,0 -4.95,-0.85 -6.57,-2.55 -1.62,-1.7 -2.43,-4.09 -2.43,-7.17 0,-3.17 0.82,-5.64 2.45,-7.4 1.64,-1.75 3.76,-2.63 6.38,-2.63 2.52,0 4.58,0.86 6.18,2.58 1.6,1.72 2.41,4.14 2.41,7.26 0,0.19 -0.01,0.48 -0.02,0.86l-14.11 0c0.12,2.07 0.7,3.67 1.76,4.77 1.05,1.1 2.38,1.65 3.95,1.65 1.18,0 2.18,-0.31 3.01,-0.93 0.83,-0.62 1.49,-1.61 1.98,-2.97zm-10.52 -5.15l10.55 0c-0.14,-1.6 -0.54,-2.79 -1.21,-3.59 -1.01,-1.23 -2.34,-1.85 -3.97,-1.85 -1.47,0 -2.7,0.49 -3.71,1.48 -1,0.98 -1.55,2.3 -1.66,3.96zm32.91 49.63l43.38 0 0 -16.2 5.77 0 0 38.92 -5.77 0 0 -16.2 -43.38 0 0 -6.52zm42.29 26.13l6.86 0 0 6.04 -6.86 0 0 -6.04zm-40.38 0l33.72 0 0 6.04 -33.81 0c0.06,-1.63 0.1,-3.3 0.1,-5.03l-0.01 -1.01zm11.13 38.52l-0.82 5.9c-4.06,-0.65 -7.23,-2.29 -9.53,-4.96 -2.3,-2.67 -3.44,-5.95 -3.44,-9.83 0,-4.86 1.59,-8.77 4.77,-11.72 3.18,-2.97 7.73,-4.44 13.66,-4.44 3.84,0 7.19,0.64 10.08,1.91 2.87,1.27 5.03,3.2 6.46,5.81 1.44,2.6 2.16,5.42 2.16,8.49 0,3.85 -0.97,7.02 -2.93,9.47 -1.95,2.46 -4.73,4.04 -8.32,4.73l-0.9 -5.84c2.4,-0.56 4.19,-1.54 5.4,-2.97 1.2,-1.42 1.81,-3.14 1.81,-5.15 0,-3.04 -1.09,-5.52 -3.26,-7.43 -2.18,-1.9 -5.62,-2.84 -10.33,-2.84 -4.78,0 -8.25,0.91 -10.41,2.74 -2.16,1.84 -3.25,4.23 -3.25,7.17 0,2.38 0.72,4.36 2.17,5.94 1.45,1.59 3.68,2.6 6.68,3.02zm-75.72 64.96l0 -24.67 -9.21 0 0 -3.28 22.14 0 0 3.28 -9.22 0 0 24.67 -3.71 0zm25.22 -2.54c-1.27,1.09 -2.5,1.85 -3.68,2.3 -1.18,0.45 -2.44,0.67 -3.79,0.67 -2.23,0 -3.94,-0.54 -5.14,-1.63 -1.19,-1.08 -1.79,-2.46 -1.79,-4.15 0,-0.99 0.23,-1.89 0.67,-2.71 0.46,-0.82 1.05,-1.47 1.78,-1.96 0.74,-0.5 1.56,-0.88 2.47,-1.13 0.68,-0.18 1.7,-0.35 3.06,-0.52 2.77,-0.32 4.82,-0.72 6.13,-1.17 0.01,-0.47 0.02,-0.77 0.02,-0.89 0,-1.4 -0.33,-2.38 -0.98,-2.95 -0.87,-0.78 -2.18,-1.16 -3.91,-1.16 -1.62,0 -2.82,0.29 -3.59,0.85 -0.77,0.57 -1.34,1.57 -1.71,3.02l-3.36 -0.47c0.31,-1.44 0.81,-2.61 1.51,-3.49 0.71,-0.89 1.72,-1.56 3.05,-2.04 1.32,-0.48 2.86,-0.72 4.6,-0.72 1.74,0 3.15,0.2 4.23,0.61 1.08,0.41 1.88,0.92 2.39,1.54 0.51,0.62 0.87,1.4 1.08,2.34 0.11,0.58 0.16,1.64 0.16,3.15l0 4.56c0,3.18 0.08,5.19 0.22,6.05 0.14,0.85 0.42,1.66 0.84,2.44l-3.59 0c-0.35,-0.72 -0.57,-1.57 -0.67,-2.54zm-0.27 -7.61c-1.25,0.51 -3.12,0.94 -5.62,1.29 -1.42,0.2 -2.42,0.43 -3.01,0.68 -0.58,0.26 -1.03,0.63 -1.35,1.11 -0.32,0.49 -0.48,1.03 -0.48,1.63 0,0.9 0.34,1.66 1.04,2.27 0.69,0.6 1.71,0.91 3.04,0.91 1.32,0 2.5,-0.29 3.54,-0.87 1.02,-0.57 1.79,-1.36 2.27,-2.35 0.37,-0.78 0.55,-1.92 0.55,-3.42l0.02 -1.25zm21.99 2.73l3.36 0.47c-0.38,2.31 -1.31,4.11 -2.83,5.42 -1.52,1.31 -3.38,1.96 -5.59,1.96 -2.76,0 -4.99,-0.9 -6.67,-2.71 -1.68,-1.81 -2.52,-4.4 -2.52,-7.77 0,-2.19 0.36,-4.09 1.08,-5.73 0.73,-1.64 1.83,-2.87 3.31,-3.68 1.48,-0.82 3.08,-1.23 4.83,-1.23 2.19,0 3.99,0.55 5.39,1.67 1.39,1.11 2.29,2.69 2.68,4.73l-3.32 0.51c-0.31,-1.36 -0.87,-2.38 -1.69,-3.07 -0.8,-0.68 -1.78,-1.03 -2.93,-1.03 -1.73,0 -3.13,0.62 -4.22,1.86 -1.08,1.24 -1.62,3.19 -1.62,5.87 0,2.72 0.52,4.69 1.56,5.92 1.05,1.23 2.41,1.85 4.08,1.85 1.36,0 2.48,-0.41 3.38,-1.24 0.9,-0.82 1.48,-2.08 1.72,-3.8zm-82.39 -52.1l-43.76 0 0 16.34 -5.82 0 0 -39.26 5.82 0 0 16.34 43.76 0 0 6.58zm-17.97 -18.97c-6.63,0 -11.55,-1.85 -14.75,-5.55 -2.65,-3.08 -3.98,-6.86 -3.98,-11.3 0,-4.93 1.62,-8.97 4.85,-12.11 3.22,-3.12 7.69,-4.69 13.38,-4.69 4.61,0 8.24,0.69 10.88,2.07 2.64,1.39 4.7,3.41 6.16,6.06 1.47,2.65 2.19,5.54 2.19,8.67 0,5.03 -1.6,9.09 -4.82,12.2 -3.22,3.1 -7.86,4.65 -13.91,4.65zm0.01 -6.23c4.6,0 8.04,-1.01 10.31,-3.01 2.29,-2.02 3.43,-4.55 3.43,-7.61 0,-3.02 -1.14,-5.54 -3.44,-7.56 -2.3,-2.01 -5.79,-3.01 -10.49,-3.01 -4.43,0 -7.79,1.01 -10.06,3.03 -2.29,2.02 -3.43,4.54 -3.43,7.54 0,3.06 1.13,5.59 3.4,7.61 2.28,2 5.7,3.01 10.28,3.01zm6.33 -59.08l0.83 -6.3c3.66,0.98 6.51,2.82 8.53,5.49 2.02,2.68 3.03,6.1 3.03,10.26 0,5.24 -1.61,9.4 -4.84,12.47 -3.22,3.07 -7.76,4.6 -13.59,4.6 -6.02,0 -10.71,-1.54 -14.03,-4.65 -3.34,-3.1 -5,-7.13 -5,-12.08 0,-4.79 1.63,-8.7 4.9,-11.74 3.26,-3.03 7.86,-4.56 13.78,-4.56 0.35,0 0.9,0.01 1.61,0.04l0 26.76c3.94,-0.23 6.96,-1.34 9.05,-3.35 2.09,-1.99 3.14,-4.5 3.14,-7.49 0,-2.22 -0.59,-4.13 -1.77,-5.7 -1.17,-1.58 -3.05,-2.83 -5.64,-3.75zm-9.76 19.94l0 -20.01c-3.03,0.27 -5.29,1.04 -6.8,2.3 -2.34,1.93 -3.52,4.44 -3.52,7.52 0,2.8 0.93,5.14 2.8,7.04 1.87,1.9 4.38,2.95 7.52,3.15z"/>
 </g>
</svg>
